<svg width="14" height="14" viewBox="0 0 14 14" fill="none" xmlns="http://www.w3.org/2000/svg">
<path fill-rule="evenodd" clip-rule="evenodd" d="M6.80804 3.49419C7.01953 3.2827 7.36243 3.2827 7.57392 3.49419L10.2818 6.20202C10.4932 6.41352 10.4932 6.75642 10.2818 6.96791L7.57392 9.67574C7.36243 9.88723 7.01953 9.88723 6.80804 9.67574C6.59654 9.46425 6.59654 9.12134 6.80804 8.90985L9.13292 6.58497L6.80804 4.26008C6.59654 4.04859 6.59654 3.70569 6.80804 3.49419Z" fill="#daa520"/>
<path fill-rule="evenodd" clip-rule="evenodd" d="M3.01604 3.49419C3.22754 3.2827 3.57044 3.2827 3.78193 3.49419L6.48976 6.20202C6.70126 6.41352 6.70126 6.75642 6.48976 6.96791L3.78193 9.67574C3.57044 9.88723 3.22754 9.88723 3.01604 9.67574C2.80455 9.46425 2.80455 9.12134 3.01604 8.90985L5.34093 6.58497L3.01604 4.26008C2.80455 4.04859 2.80455 3.70569 3.01604 3.49419Z" fill="#daa520"/>
</svg>
