<svg width="32" height="32" viewBox="0 0 32 32" fill="#fff" class="fill-gray-50" xmlns="http://www.w3.org/2000/svg">
<path d="M16 21.9999V12.9999M16 12.9999L20 16.9999M16 12.9999L12 16.9999M9 25.9999C7.57258 26.0014 6.19136 25.494 5.1044 24.5688C4.01743 23.6436 3.29594 22.3611 3.06948 20.9518C2.84302 19.5424 3.12644 18.0985 3.86883 16.8794C4.61122 15.6602 5.76395 14.7456 7.12 14.2999C6.7716 12.5148 7.13168 10.6642 8.12398 9.13992C9.11628 7.61567 10.6629 6.53749 12.4363 6.1337C14.2097 5.72991 16.0706 6.03221 17.625 6.97658C19.1794 7.92096 20.3052 9.43326 20.764 11.1932C21.4733 10.9625 22.2331 10.9348 22.9574 11.1131C23.6816 11.2914 24.3417 11.6687 24.8628 12.2024C25.384 12.736 25.7456 13.4047 25.9067 14.133C26.0678 14.8614 26.0221 15.6202 25.7747 16.3239C26.8662 16.7408 27.7774 17.5267 28.3501 18.5452C28.9228 19.5636 29.121 20.7504 28.9102 21.8997C28.6994 23.049 28.093 24.0883 27.1961 24.8372C26.2992 25.5861 25.1685 25.9975 24 25.9999H9Z" stroke="#201E1E" stroke-opacity="0.65" stroke-width="1.5" stroke-linecap="round" stroke-linejoin="round"/>
</svg>
